<svg width="34" height="34" viewBox="0 0 34 34" fill="none" xmlns="http://www.w3.org/2000/svg">
<path d="M32 17C32 25.2843 25.2843 32 17 32C8.71573 32 2 25.2843 2 17C2 8.71573 8.71573 2 17 2C25.2843 2 32 8.71573 32 17Z" stroke="#AC8887" stroke-width="3"/>
<path d="M19.8617 11.803C17.9802 11.2826 16.0198 11.2826 14.1383 11.803C14.0315 11.8325 13.925 11.8637 13.8187 11.8966L13.8157 11.8976C13.7607 11.9148 13.7008 11.9039 13.6554 11.8684C13.5919 11.819 13.5294 11.7712 13.4678 11.7249C11.4885 10.2366 10.4546 10.303 10.1988 10.3527C10.1577 10.3607 10.1264 10.3914 10.1122 10.4307C10.1086 10.4407 10.105 10.4506 10.1015 10.4606C9.69397 11.6084 9.63172 12.8802 9.92127 14.0708C9.93814 14.1402 9.95617 14.2092 9.9754 14.2778C9.97667 14.2823 9.97794 14.2868 9.9792 14.2913C9.99589 14.3503 9.98365 14.4138 9.94632 14.4627C9.91789 14.4997 9.88989 14.5372 9.86234 14.575C9.07464 15.6565 8.64844 17.0355 8.66725 18.4578C8.66725 24.2332 11.6733 25.5597 14.5583 25.9518L14.618 25.9597C16.2245 26.1998 17.7645 26.185 19.3658 25.9132L19.4063 25.9083C22.3053 25.5565 25.3327 24.2645 25.3327 18.4578C25.3515 17.0355 24.9253 15.6565 24.1377 14.575C24.1123 14.5403 24.0867 14.5058 24.0607 14.4717L24.0587 14.4692C24.0183 14.4163 24.005 14.3475 24.023 14.2835C24.0428 14.2128 24.0613 14.142 24.0785 14.0708C24.3683 12.8769 24.3025 11.6013 23.8882 10.4529C23.8855 10.4459 23.883 10.4389 23.8805 10.4318C23.8658 10.3917 23.834 10.3605 23.792 10.3524C23.535 10.3027 22.5068 10.2397 20.5322 11.7249C20.4747 11.7681 20.4165 11.8126 20.3573 11.8585C20.304 11.9002 20.2337 11.9127 20.1688 11.8928L20.1647 11.8915C20.064 11.8605 19.963 11.831 19.8617 11.803Z" stroke="#AC8887" stroke-width="3" stroke-linecap="round" stroke-linejoin="round"/>
</svg>
